<?xml version="1.0" standalone="no"?><!DOCTYPE svg PUBLIC "-//W3C//DTD SVG 1.1//EN" "http://www.w3.org/Graphics/SVG/1.1/DTD/svg11.dtd"><svg t="1614001407846" class="icon" viewBox="0 0 1024 1024" version="1.1" xmlns="http://www.w3.org/2000/svg" p-id="3193" xmlns:xlink="http://www.w3.org/1999/xlink" width="200" height="200"><defs><style type="text/css"></style></defs><path d="M530.261333 0.136533A192.512 192.512 0 0 1 722.602667 192.512v35.84h119.842133c33.5872 0 62.122667 25.122133 66.286933 58.5728l82.705067 661.8112c2.389333 19.080533-3.549867 38.161067-16.2816 52.497067-12.561067 14.336-30.9248 22.664533-50.005333 22.664533H135.543467a67.037867 67.037867 0 0 1-66.4576-75.1616L151.790933 286.890667A66.901333 66.901333 0 0 1 218.112 228.283733h119.808V192.512A192.648533 192.648533 0 0 1 530.295467 0.136533z m0.6144 392.0896a27.5456 27.5456 0 0 0-27.5456 27.5456v178.9952H324.334933a27.5456 27.5456 0 1 0 0 55.057067h178.9952V832.853333a27.5456 27.5456 0 1 0 55.0912 0v-178.9952h178.9952a27.5456 27.5456 0 1 0 0-55.057066H558.421333v-178.9952a27.5456 27.5456 0 0 0-27.5456-27.5456z m-0.750933-326.826666a127.1808 127.1808 0 0 0-127.0784 127.0784v35.84h254.190933v-35.84a127.0784 127.0784 0 0 0-127.112533-127.0784z" p-id="3194" fill="#E5CEAE"></path></svg>