<?xml version="1.0" standalone="no"?><!DOCTYPE svg PUBLIC "-//W3C//DTD SVG 1.1//EN" "http://www.w3.org/Graphics/SVG/1.1/DTD/svg11.dtd"><svg t="1613729784167" class="icon" viewBox="0 0 1024 1024" version="1.1" xmlns="http://www.w3.org/2000/svg" p-id="2405" xmlns:xlink="http://www.w3.org/1999/xlink" width="200" height="200"><defs><style type="text/css"></style></defs><path d="M496.128 0.136533A192.512 192.512 0 0 1 688.469333 192.512v35.84h119.842134c33.5872 0 62.122667 25.122133 66.286933 58.5728l82.705067 661.8112c2.389333 19.080533-3.549867 38.161067-16.2816 52.497067-12.5952 14.336-30.9248 22.664533-50.005334 22.664533H101.376a67.037867 67.037867 0 0 1-66.423467-75.1616L117.6576 286.890667a66.901333 66.901333 0 0 1 66.286933-58.606934h119.808V192.512A192.648533 192.648533 0 0 1 496.162133 0.136533z m-192.512 293.546667H184.1152l-84.309333 663.1424 791.108266 1.774933 1.194667-0.580266a1.160533 1.160533 0 0 0 0.273067-1.194667L809.642667 295.048533l-121.173334-1.365333v82.261333a55.466667 55.466667 0 1 1-65.399466 0v-82.261333h-254.020267v82.261333a55.569067 55.569067 0 0 1-32.699733 100.317867 55.569067 55.569067 0 0 1-32.699734-100.283733v-82.261334z m192.375467-228.283733a127.1808 127.1808 0 0 0-127.112534 127.0784v35.84h254.190934v-35.84a127.0784 127.0784 0 0 0-127.0784-127.0784z" p-id="2406" fill="#E5CEAE"></path></svg>