<?xml version="1.0" standalone="no"?><!DOCTYPE svg PUBLIC "-//W3C//DTD SVG 1.1//EN" "http://www.w3.org/Graphics/SVG/1.1/DTD/svg11.dtd"><svg t="1619568308647" class="icon" viewBox="0 0 1024 1024" version="1.1" xmlns="http://www.w3.org/2000/svg" p-id="1603" xmlns:xlink="http://www.w3.org/1999/xlink" width="200" height="200"><defs><style type="text/css"></style></defs><path d="M1015.7 414.9c5.5 2.8 8.3 7.5 8.3 14.4s-2.8 11.6-8.3 14.4l-156.9 82.2v232.4c0 6.9-2.8 11.6-8.3 14.4l-330.2 181h-2.2c-1.3 1.3-3.4 2-6.1 2s-4.8-0.7-6.1-2h-2l-330.3-181c-5.5-2.8-8.3-7.5-8.3-14.4V525.9l-157-82.3c-5.5-2.8-8.3-7.5-8.3-14.4 0-6.8 2.8-11.6 8.3-14.4l126-67.8-126-67.8c-5.5-2.9-8.3-7.7-8.3-14.5s2.8-11.6 8.3-14.4l346.8-181c5.5-1.3 11.1-1.3 16.5 0l140.4 76.1 140.4-76.1c5.5-1.3 11.1-1.3 16.5 0l346.8 181c5.5 2.9 8.3 7.7 8.3 14.5 0 6.9-2.8 11.6-8.3 14.4l-125.8 67.8 125.8 67.9z m-846.4-86.4l307.6-164.5-113.6-61.7-311.7 162.4 117.7 63.8z m-117.7 100.8l311.7 162.5 113.6-61.8-307.6-164.5-117.7 63.8z m146.6 318.7l297.3 162.5V558.8l-123.9 65.8c-1.3 1.3-4.1 2-8.3 2-4.1 0-6.9-0.7-8.3-2l-156.8-82.2V748z m621.4-401.1l-307.6-164.5-307.6 164.5 307.6 164.5 307.6-164.5z m6.3 195.5l-157 82.2c-1.3 1.3-4.1 2-8.3 2-4.2 0-6.9-0.7-8.3-2l-123.9-65.8v351.7l297.3-162.5V542.4h0.2z m-278.8-378.5l307.6 164.5 117.7-63.8-311.7-162.4-113.6 61.7z m425.3 265.4l-117.7-63.8-307.6 164.5 113.6 61.7 311.7-162.4z" p-id="1604" fill="#333330"></path></svg>