<?xml version="1.0" standalone="no"?><!DOCTYPE svg PUBLIC "-//W3C//DTD SVG 1.1//EN" "http://www.w3.org/Graphics/SVG/1.1/DTD/svg11.dtd"><svg t="1616514746373" class="icon" viewBox="0 0 1024 1024" version="1.1" xmlns="http://www.w3.org/2000/svg" p-id="4836" xmlns:xlink="http://www.w3.org/1999/xlink" width="200" height="200"><defs><style type="text/css"></style></defs><path d="M765.405322 549.136141l-156.395753-91.987463 16.827391-181.858702-134.858058 120.488217L323.660705 323.58766l72.94145 166.43075-122.536175 137.418005 183.974925-18.943614 91.338943 157.01014 37.989628-178.172377z m-9.488873-281.048152a85.126802 85.126802 0 0 0 60.721965 25.599479c23.756317 0.375459 43.928707-7.543313 60.619567-24.234174l121.17087 121.17087c16.486065 16.520197 25.053357 36.692587 25.565347 60.721965 0.409592 23.756317-7.509181 43.962839-24.200042 60.619568L512.004608 999.755245c-16.520197 16.520197-36.692587 24.5755-60.619567 24.200041a85.502261 85.502261 0 0 1-60.721966-25.599479l-121.170869-121.3074c16.998054-16.998054 25.258153-37.341107 24.541368-60.960894a86.048384 86.048384 0 0 0-25.940806-60.209976 85.126802 85.126802 0 0 0-60.687833-25.599479c-23.756317-0.375459-43.928707 7.543313-60.619567 24.234174L25.614498 633.170699A85.126802 85.126802 0 0 1 0.015019 572.482866c-0.409592-23.756317 7.509181-43.928707 24.200041-60.619567L511.868078 24.244414c16.520197-16.520197 36.692587-24.5755 60.619567-24.200042 23.79045 0.409592 44.031105 9.079282 60.721965 25.59948l121.239135 121.239135c-16.486065 16.486065-24.5755 36.658455-24.165908 60.619567 0.546122 23.92698 9.147547 44.09937 25.633612 60.619568z" p-id="4837" fill="#333333"></path></svg>