<?xml version="1.0" standalone="no"?><!DOCTYPE svg PUBLIC "-//W3C//DTD SVG 1.1//EN" "http://www.w3.org/Graphics/SVG/1.1/DTD/svg11.dtd"><svg t="1616512595383" class="icon" viewBox="0 0 1024 1024" version="1.1" xmlns="http://www.w3.org/2000/svg" p-id="2705" xmlns:xlink="http://www.w3.org/1999/xlink" width="200" height="200"><defs><style type="text/css"></style></defs><path d="M512 1024c92.672 0 178.346667-22.8352 257.024-68.5056a505.617067 505.617067 0 0 0 186.4704-186.504533C1001.1648 690.346667 1024 604.672 1024 512s-22.8352-178.346667-68.5056-257.024a505.617067 505.617067 0 0 0-186.504533-186.4704C690.346667 22.8352 604.672 0 512 0S333.653333 22.8352 254.976 68.5056A505.617067 505.617067 0 0 0 68.539733 254.976C22.8352 333.653333 0 419.328 0 512s22.8352 178.346667 68.5056 257.024a505.617067 505.617067 0 0 0 186.504533 186.4704C333.653333 1001.1648 419.328 1024 512 1024z m0-72.021333c-60.0064 0-117.009067-11.298133-171.008-33.962667A445.1328 445.1328 0 0 1 201.045333 822.954667a431.377067 431.377067 0 0 1-94.0032-139.9808C83.626667 629.009067 71.9872 572.0064 71.9872 512s11.332267-117.009067 33.9968-171.008C128.682667 288.324267 160.324267 241.664 201.045333 201.045333s87.313067-72.021333 139.9808-94.0032c53.998933-23.3472 111.0016-35.0208 171.008-35.0208s117.009067 11.332267 171.008 33.9968A445.1328 445.1328 0 0 1 822.954667 201.045333a431.377067 431.377067 0 0 1 94.0032 139.9808c23.3472 53.998933 35.0208 111.0016 35.0208 171.008s-11.332267 117.009067-33.9968 171.008a445.1328 445.1328 0 0 1-95.0272 139.9808 431.377067 431.377067 0 0 1-139.9808 94.0032A426.530133 426.530133 0 0 1 512 952.0128z m0-311.978667c11.332267 0 20.650667-3.652267 27.989333-10.990933 8.021333-8.021333 12.014933-17.681067 12.014934-29.013334V231.0144c0-11.332267-3.822933-20.821333-11.502934-28.501333A38.7072 38.7072 0 0 0 512 191.010133c-11.332267 0-20.821333 3.822933-28.501333 11.502934a38.7072 38.7072 0 0 0-11.502934 28.501333v368.981333c0 11.332267 3.822933 20.821333 11.502934 28.501334 7.68 7.68 17.169067 11.502933 28.501333 11.502933z m0 154.0096c12.663467 0 23.3472-4.334933 32.017067-13.0048 8.635733-8.669867 12.970667-19.3536 12.970666-32.017067 0-12.629333-4.334933-23.313067-12.970666-31.982933a43.485867 43.485867 0 0 0-32.017067-13.0048c-12.663467 0-23.3472 4.334933-32.017067 12.970667-8.635733 8.704-12.970667 19.3536-12.970666 32.017066s4.334933 23.3472 12.970666 32.017067c8.669867 8.669867 19.3536 12.970667 32.017067 12.970667z" p-id="2706" fill="#ea1a29"></path></svg>