<?xml version="1.0" standalone="no"?><!DOCTYPE svg PUBLIC "-//W3C//DTD SVG 1.1//EN" "http://www.w3.org/Graphics/SVG/1.1/DTD/svg11.dtd"><svg t="1616504581810" class="icon" viewBox="0 0 1024 1024" version="1.1" xmlns="http://www.w3.org/2000/svg" p-id="2009" xmlns:xlink="http://www.w3.org/1999/xlink" width="200" height="200"><defs><style type="text/css"></style></defs><path d="M316.962133 734.8224l44.475734-80.520533a251.118933 251.118933 0 0 1-77.585067-90.760534 252.586667 252.586667 0 0 1-27.989333-115.882666c0-46.045867 11.605333-88.849067 34.850133-128.443734-87.1424 44.509867-159.675733 111.684267-217.531733 201.5232 63.556267 98.2016 144.827733 169.5744 243.780266 214.084267zM538.999467 301.499733a26.624 26.624 0 0 0-7.953067-19.421866 26.077867 26.077867 0 0 0-19.456-7.953067c-47.581867 0-88.405333 16.9984-122.436267 51.063467-34.065067 34.065067-51.0976 74.888533-51.0976 122.4704a26.624 26.624 0 0 0 7.9872 19.456 26.077867 26.077867 0 0 0 19.421867 7.953066c7.645867-0.068267 14.1312-2.730667 19.456-7.9872s7.953067-11.741867 7.953067-19.421866c0-32.768 11.605333-60.689067 34.816-83.899734 23.278933-23.176533 51.2-34.816 83.933866-34.816a26.624 26.624 0 0 0 19.421867-7.9872 26.077867 26.077867 0 0 0 7.953067-19.456z m207.2576-109.021866a13.550933 13.550933 0 0 1-0.6144 5.12c-39.936 71.5776-99.874133 179.268267-179.8144 323.140266a108650.359467 108650.359467 0 0 1-180.4288 323.6864l-27.989334 50.7904a17.885867 17.885867 0 0 1-15.9744 9.147734c-4.573867 0-30.1056-13.312-76.526933-39.970134a17.885867 17.885867 0 0 1-9.1136-16.042666c0-4.539733 8.362667-21.0944 25.122133-49.664a591.530667 591.530667 0 0 1-150.459733-98.781867 680.618667 680.618667 0 0 1-119.022933-139.8784C3.822933 548.2496 0.034133 535.108267 0.034133 520.669867s3.7888-27.613867 11.400534-39.389867C69.632 391.850667 141.960533 321.194667 228.386133 269.5168s180.804267-77.6192 283.136-77.6192c33.860267 0 68.130133 3.242667 102.741334 9.728l30.856533-55.3984a17.885867 17.885867 0 0 1 16.008533-9.1136c1.877333 0 5.3248 1.1264 10.274134 3.413333a417.928533 417.928533 0 0 1 36.522666 19.456c5.802667 3.447467 11.776 6.997333 17.988267 10.581334 6.2464 3.618133 9.966933 5.802667 11.127467 6.587733 6.075733 3.7888 9.1136 8.942933 9.1136 15.428267z m21.0944 255.1808c0 52.906667-15.018667 101.137067-45.056 144.6912a251.562667 251.562667 0 0 1-119.364267 93.866666l159.880533-286.583466c3.037867 17.169067 4.539733 33.143467 4.539734 47.957333z m255.761066 73.045333c0 13.312-3.7888 26.453333-11.400533 39.424-14.848 24.337067-35.601067 51.950933-62.2592 82.773333-57.105067 65.467733-123.221333 116.292267-198.382933 152.439467a545.553067 545.553067 0 0 1-239.445334 54.203733l42.222934-75.332266c80.657067-6.8608 155.3408-32.938667 224.017066-78.165334 68.7104-45.2608 126.0544-103.697067 172.100267-175.240533-43.758933-68.096-97.416533-124.040533-160.9728-167.8336l35.9424-63.965867c36.181333 24.3712 70.894933 53.486933 104.209067 87.3472s60.8256 68.881067 82.500266 105.0624c7.5776 12.970667 11.400533 26.077867 11.400534 39.389867z" p-id="2010" fill="#DEC39E"></path></svg>