<?xml version="1.0" standalone="no"?><!DOCTYPE svg PUBLIC "-//W3C//DTD SVG 1.1//EN" "http://www.w3.org/Graphics/SVG/1.1/DTD/svg11.dtd"><svg t="1616504629761" class="icon" viewBox="0 0 1024 1024" version="1.1" xmlns="http://www.w3.org/2000/svg" p-id="2381" xmlns:xlink="http://www.w3.org/1999/xlink" width="200" height="200"><defs><style type="text/css"></style></defs><path d="M950.852267 534.357333c-57.890133-89.9072-130.4576-157.149867-217.770667-201.728a249.719467 249.719467 0 0 1 34.9184 128.6144c0 70.4512-25.053867 130.730667-75.093333 180.872534-50.107733 50.107733-110.3872 75.1616-180.906667 75.093333s-130.798933-25.053867-180.906667-75.093333c-50.039467-50.039467-75.093333-110.318933-75.093333-180.906667 0-46.08 11.605333-88.917333 34.884267-128.580267-87.2448 44.578133-159.812267 111.8208-217.770667 201.728 50.688 78.1312 114.210133 140.322133 190.5664 186.606934s159.1296 69.393067 248.32 69.393066 171.963733-23.108267 248.32-69.393066c76.356267-46.2848 139.8784-108.475733 190.532267-186.606934zM539.4432 314.948267a26.624 26.624 0 0 0-7.9872-19.456 26.112 26.112 0 0 0-19.456-7.9872c-47.650133 0-88.507733 17.066667-122.5728 51.131733-34.0992 34.0992-51.131733 74.9568-51.131733 122.606933a26.624 26.624 0 0 0 7.953066 19.456 26.112 26.112 0 0 0 19.456 7.953067c7.68-0.034133 14.165333-2.730667 19.456-7.953067s7.9872-11.776 7.9872-19.456c0-32.768 11.605333-60.757333 34.884267-83.968A114.858667 114.858667 0 0 1 512 342.357333a26.624 26.624 0 0 0 19.456-7.953066 26.112 26.112 0 0 0 7.9872-19.456zM1024 534.357333c0 12.970667-3.7888 26.112-11.400533 39.424-53.3504 87.6544-125.064533 157.832533-215.108267 210.602667s-185.207467 79.121067-285.422933 79.121067-195.345067-26.453333-285.3888-79.428267C136.6016 731.136 64.853333 661.026133 11.5712 573.815467c-7.611733-13.312-11.434667-26.487467-11.434667-39.458134 0-12.970667 3.822933-26.112 11.434667-39.424C64.853333 407.722667 136.6016 337.6128 226.645333 284.672c90.043733-52.974933 185.173333-79.428267 285.3888-79.428267s195.345067 26.453333 285.422934 79.428267c90.043733 52.9408 161.757867 123.050667 215.108266 210.261333 7.611733 13.312 11.400533 26.453333 11.400534 39.424z" p-id="2382" fill="#DEC39E"></path></svg>