<?xml version="1.0" standalone="no"?><!DOCTYPE svg PUBLIC "-//W3C//DTD SVG 1.1//EN" "http://www.w3.org/Graphics/SVG/1.1/DTD/svg11.dtd"><svg t="1616514523250" class="icon" viewBox="0 0 1024 1024" version="1.1" xmlns="http://www.w3.org/2000/svg" p-id="4187" xmlns:xlink="http://www.w3.org/1999/xlink" width="200" height="200"><defs><style type="text/css"></style></defs><path d="M967.509333 0H56.490667C25.2928 0 0 25.2928 0 56.490667v911.018666C0 998.741333 25.2928 1024 56.490667 1024h490.3936V627.473067h-133.461334v-154.5216h133.461334v-114.141867c0-132.1984 80.827733-204.117333 198.792533-204.117333 56.558933 0 105.130667 4.096 119.296 6.007466v138.24H783.018667c-64 0-76.458667 30.72-76.458667 75.537067v98.6112h152.917333l-19.831466 154.862933H706.56V1024h260.9152C998.741333 1024 1024 998.741333 1024 967.509333V56.490667C1024 25.2928 998.741333 0 967.509333 0" p-id="4188" fill="#333333"></path></svg>