<?xml version="1.0" standalone="no"?><!DOCTYPE svg PUBLIC "-//W3C//DTD SVG 1.1//EN" "http://www.w3.org/Graphics/SVG/1.1/DTD/svg11.dtd"><svg t="1614614051479" class="icon" viewBox="0 0 1024 1024" version="1.1" xmlns="http://www.w3.org/2000/svg" p-id="2395" xmlns:xlink="http://www.w3.org/1999/xlink" width="200" height="200"><defs><style type="text/css"></style></defs><path d="M404.6 1012.5c-55.6-33-95.5-91-97.8-159.2-3.3-127.5 85.3-190 137.7-275.4 75-122.8 54.5-199 54.5-199s62.6 35.2 99 166.1c11.3 38.7 13.7 77.4 10.2 113.9C602.7 751 562.9 834 562.9 834s69.4-14.8 88.7-141.1c32 33 61.5 80.7 64.9 130.8 5.7 86.5-45.4 166.1-122.8 200.1 134-30.7 229.8-144.4 262.8-227.5 42-104.6 30.7-197.9 23.8-278.7-9.1-110.3 29.5-192.2 29.5-192.2S835.9 347 781.3 436.8c-25 41-35.2 101.2-35.2 101.2s5.7-53.4-29.6-151.2c-35.2-95.6-67.1-129.6-86.5-200.1C604.9 92.3 660.6 0.1 660.6 0.1S440 41.2 339.8 233.3c-88.7 170.6-52.3 273-52.3 273s-37.6-35.3-56.9-84.2c-19.3-48.9-15-93.2-15-93.2S58.9 501.8 135.2 719.1c51.2 152.4 150 252.5 269.4 293.4z" p-id="2396"></path></svg>