<?xml version="1.0" standalone="no"?><!DOCTYPE svg PUBLIC "-//W3C//DTD SVG 1.1//EN" "http://www.w3.org/Graphics/SVG/1.1/DTD/svg11.dtd"><svg t="1616514344870" class="icon" viewBox="0 0 1024 1024" version="1.1" xmlns="http://www.w3.org/2000/svg" p-id="2937" xmlns:xlink="http://www.w3.org/1999/xlink" width="200" height="200"><defs><style type="text/css"></style></defs><path d="M54.784 281.941333A510.7712 510.7712 0 0 1 511.3856 0.4096c137.693867 0 253.371733 50.5856 341.845333 133.12l-146.500266 146.5344c-53.009067-50.653867-120.354133-76.458667-195.345067-76.458667-133.12 0-245.76 89.941333-285.9008 210.670934-10.24 30.685867-16.042667 63.3856-16.042667 97.109333 0 33.723733 5.802667 66.423467 16.042667 97.0752 40.174933 120.797867 152.7808 210.670933 285.9008 210.670933 68.7104 0 127.214933-18.1248 173.021867-48.810666a235.042133 235.042133 0 0 0 101.9904-154.180267h-275.012267v-197.632H992.597333c6.007467 33.3824 9.284267 68.266667 9.284267 104.448 0 155.648-55.7056 286.685867-152.3712 375.6032-84.514133 78.062933-200.192 123.8016-338.158933 123.8016a510.7712 510.7712 0 0 1-510.976-510.976c0-82.466133 19.729067-160.426667 54.3744-229.444267z" p-id="2938" fill="#333333"></path></svg>