<?xml version="1.0" standalone="no"?><!DOCTYPE svg PUBLIC "-//W3C//DTD SVG 1.1//EN" "http://www.w3.org/Graphics/SVG/1.1/DTD/svg11.dtd"><svg t="1621209315968" class="icon" viewBox="0 0 1228 1024" version="1.1" xmlns="http://www.w3.org/2000/svg" p-id="1635" xmlns:xlink="http://www.w3.org/1999/xlink" width="239.84375" height="200"><defs><style type="text/css"></style></defs><path d="M614.4 616.96a45.9776 45.9776 0 0 0 28.3648-10.6496l573.7472-493.9776A34.304 34.304 0 0 0 1228.8 88.064a34.304 34.304 0 0 0-12.288-24.3712l-61.5424-52.9408A45.9776 45.9776 0 0 0 1126.6048 0a45.9776 45.9776 0 0 0-28.3648 10.6496L614.4 427.2128 130.56 10.6496A45.9776 45.9776 0 0 0 102.1952 0a43.3152 43.3152 0 0 0-28.3648 10.6496l-61.44 52.9408A34.304 34.304 0 0 0 0 88.064c0 8.4992 4.9152 18.0224 12.288 24.3712l573.7472 493.9776c7.4752 6.3488 18.432 10.6496 28.3648 10.6496zM614.4 1024a45.9776 45.9776 0 0 0 28.3648-10.6496l573.7472-493.9776a34.304 34.304 0 0 0 12.288-24.3712 34.304 34.304 0 0 0-12.288-24.3712l-61.5424-52.9408a45.9776 45.9776 0 0 0-28.3648-10.6496 45.9776 45.9776 0 0 0-28.3648 10.6496L614.4 834.2528 130.56 417.6896a45.9776 45.9776 0 0 0-28.3648-10.6496 43.3152 43.3152 0 0 0-28.3648 10.6496l-61.44 52.9408A34.304 34.304 0 0 0 0 495.0016c0 8.4992 4.9152 18.0224 12.288 24.3712l573.7472 493.9776c7.4752 6.4512 18.432 10.6496 28.3648 10.6496z" p-id="1636" fill="#f2c47e"></path></svg>