<?xml version="1.0" standalone="no"?><!DOCTYPE svg PUBLIC "-//W3C//DTD SVG 1.1//EN" "http://www.w3.org/Graphics/SVG/1.1/DTD/svg11.dtd"><svg t="1616504446016" class="icon" viewBox="0 0 1024 1024" version="1.1" xmlns="http://www.w3.org/2000/svg" p-id="1453" xmlns:xlink="http://www.w3.org/1999/xlink" width="200" height="200"><defs><style type="text/css"></style></defs><path d="M512 576a288.085333 288.085333 0 0 0 288.017067-288.017067C800.017067 129.024 670.958933 0 512 0S223.982933 129.024 223.982933 288.017067A288.085333 288.085333 0 0 0 512 575.965867z m256 64h-110.216533c-44.373333 20.411733-93.7984 32.017067-145.783467 32.017067s-101.205333-11.605333-145.783467-32.017067H256a256 256 0 0 0-256 256v32.017067A96.017067 96.017067 0 0 0 95.982933 1024h832A96.017067 96.017067 0 0 0 1024 927.982933v-31.982933a256 256 0 0 0-256-256z" p-id="1454" fill="#DEC39E"></path></svg>