<?xml version="1.0" encoding="utf-8"?>
<!-- Generator: Adobe Illustrator 25.2.1, SVG Export Plug-In . SVG Version: 6.00 Build 0)  -->
<svg version="1.1" id="图层_1" xmlns="http://www.w3.org/2000/svg" xmlns:xlink="http://www.w3.org/1999/xlink" x="0px" y="0px"
	 viewBox="0 0 1024 1024" style="enable-background:new 0 0 1024 1024;" xml:space="preserve">
<style type="text/css">
	.st0{fill-rule:evenodd;clip-rule:evenodd;fill:#E5CEAE;}
	.st1{fill:#E5CEAE;}
</style>
<g transform="translate(0 1.5)">
	<g transform="translate(4)">
		<g>
			<circle class="st0" cx="424.84" cy="401.36" r="23.9"/>
			<circle class="st0" cx="707.57" cy="413.31" r="23.9"/>
			<circle class="st0" cx="707.57" cy="413.31" r="23.9"/>
		</g>
		<g>
			<path class="st1" d="M170.01,620.66c-5.98,0-12.08-0.37-18.26-1.14c-44.79-5.49-97.69-39.87-107.48-92.78
				c-10.93-59.16,7.9-122.74,61.08-206.17c58.43-91.67,153.44-124.33,222.87-124.33c118.11,0,185.92,61.13,201.55,181.68
				c0.98,7.62,5.71,14.17,12.64,17.5c48.64,23.41,76.1,47.74,83.94,74.41c4.77,16.19,2.17,32.57-7.71,48.71
				c-30.61,50.05-89.22,90.77-130.63,90.77c-50.04,0-105.87-16.09-165.95-47.81c-6.44-3.41-8.91-11.4-5.51-17.84
				c3.4-6.44,11.4-8.89,17.83-5.5c56.25,29.69,107.94,44.75,153.63,44.75c32.13,0,82.66-36.52,108.13-78.15
				c5.89-9.65,7.49-18.63,4.9-27.48c-3.81-12.95-19.07-33.54-70.07-58.08c-15-7.22-25.24-21.38-27.37-37.89
				c-13.84-106.77-71.21-158.67-175.37-158.67c-41.85,0-94.08,13.24-139.83,46.88c12.75-1.09,25.67,1.31,38.75,7.06
				c24.26,10.67,41.69,36.1,51.81,75.59c20.35,79.41,6.04,197.55-14.12,223.8C242.63,604.89,208.73,620.66,170.01,620.66z
				 M84.64,415.9c-19.94,49.73-18.85,82.08-14.41,106.05c7.23,39.05,48.76,66.97,84.74,71.39c36.75,4.44,69.13-7.68,88.92-33.43
				c12.54-16.35,29.28-123.94,9.48-201.2c-5.5-21.47-16.37-48.97-36.86-57.99c-42.53-18.69-86.02,18.76-129.23,111.4
				C86.61,413.57,85.7,414.84,84.64,415.9z"/>
		</g>
		<g>
			<path class="st1" d="M719.99,594.43c-23.53,0-51.12-3.55-83.08-10.64c-7.12-1.58-11.62-8.63-10.03-15.74
				c1.58-7.14,8.78-11.49,15.74-10.03c61.5,13.64,105.34,13.35,130.24-0.88c38.38-21.98,53.61-63.52,52.87-71.2
				c-0.28-2.01-2.85-9.61-24.1-21.54c-8.89-5.01-13.84-14.78-12.65-24.9c5.5-46.17-3.57-83.82-27.72-115.09
				c-24.12-31.24-63.36-48.68-116.66-51.86c-10.12-0.62-18.04-9.03-18.04-19.15V169c-16.02,2.47-62.76,26.85-107.68,68.32
				c-5.34,4.92-13.71,4.6-18.65-0.75c-4.93-5.36-4.6-13.71,0.75-18.65c39.85-36.76,111.68-85.46,139.57-73.33
				c7.77,3.41,12.41,10.82,12.41,19.83v82.29c57.82,4.74,101.27,25.45,129.17,61.6c28.2,36.5,39.32,81.7,33.06,134.34
				c22.46,11.74,34.66,25.15,36.67,39.74c2.71,19.59-20.27,71.55-65.9,97.67C769.2,589.65,747.34,594.43,719.99,594.43z"/>
		</g>
	</g>
	<g>
		<path class="st1" d="M1021.4,583.24c5.39,9.33,2.49,16.52-9.66,23.53c-10.03,5.79-20.58,7.05-31.15,13.15
			c-10.56,6.1-13.92,14.94-25.54,21.65c-11.09,6.4-19.81,1.07-23.1-4.62c-6.58-11.4,0.98-17.83,4.8-33.17
			c3.84-15.33,3.14-28.74,13.18-34.53c11.62-6.71,22.5,3.59,36.63,8.55C999.34,582.85,1015.12,572.36,1021.4,583.24z M966.26,539.75
			c12.5-7.22,9.66-26.59,1.2-41.25c-8.47-14.66-21.72-17.16-27.45-13.85c-12.51,7.22-11.44,24.71-6.11,33.95
			C938.91,527.29,954.79,546.37,966.26,539.75z M922.18,560.18c12.63-7.29,6.69-24.21-1.51-38.41
			c-6.08-10.53-18.7-15.16-26.17-10.85c-13.2,7.62-11.66,23.56-5.58,34.09C893.78,553.43,911.27,566.48,922.18,560.18z
			 M916.31,583.76c-5.46-9.46-19.25-14.1-27.02-9.61c-7.78,4.49-11.1,21.81-3.83,34.42c4.85,8.41,18.8,17.16,29.34,11.07
			C924.81,613.87,923.89,596.89,916.31,583.76z M998.63,511.34c-8.2,2.64-12.39,13.46-11.38,29.66c0.37,18.7,11.42,27.01,21.5,23.99
			c10.08-3.01,13.78-17.06,10.9-32.89C1018.06,519.72,1006.83,508.7,998.63,511.34z"/>
		<path class="st1" d="M23.75,816.96c1.41,0,3.11-0.28,4.81-0.57l4.81-1.7c1.41-0.85,2.54-1.98,3.68-3.39
			c0.85-1.13,1.41-2.54,1.41-4.52c0-0.57-0.85-2.26-1.98-5.37c-0.57-1.13-0.85-1.98-1.13-3.11c-0.57-1.13-0.85-1.7-0.85-2.26
			c-1.7-5.94-2.83-12.44-3.96-19.79c-1.13-6.79-1.7-13.86-2.26-21.21c5.94,2.26,12.16,3.96,18.66,5.09
			c6.22,1.41,11.88,1.98,16.97,1.98c12.44,0,23.47-1.7,33.37-5.09c9.61-3.11,18.1-7.63,24.88-13.86
			c6.5-5.94,11.59-13.29,15.27-22.06c3.39-8.48,5.37-18.1,5.37-28.84c0-6.22-1.13-13.01-3.11-20.08
			c-2.26-7.07-5.66-13.86-9.61-20.08c-4.24-6.22-9.33-11.59-14.99-16.68c-5.94-4.52-12.72-8.2-20.08-10.46
			c-3.68-0.85-7.35-1.41-11.03-1.98c-3.96-0.57-7.63-0.85-11.31-0.85c-9.05,0-16.68,1.13-22.9,3.11c-6.5,2.26-11.03,4.52-13.86,7.07
			v-1.98c-1.13-2.54-3.11-4.52-5.94-5.94c-2.83-1.13-5.37-1.98-7.92-1.98c-1.7,0-3.68,0.28-5.66,0.57c-2.26,0.57-4.24,1.13-5.94,1.7
			c-1.98,1.13-3.68,2.26-4.81,3.39c-1.13,1.41-1.7,3.11-1.7,5.09c0,0.85,0,1.7,0.57,2.83l1.13,3.39c0.57,1.13,0.85,2.26,0.85,3.39
			v1.98c-2.54,11.88-4.24,23.75-5.09,35.34C0.28,691.98,0,703.86,0,715.73c0,6.22,0,13.29,0.57,21.49c0,8.48,0.57,16.97,1.41,25.45
			c0.57,8.77,1.7,17.25,3.11,25.17c1.13,8.2,2.54,14.99,4.52,20.64c0.85,2.83,2.83,5.09,5.66,6.22
			C17.81,816.11,20.64,816.96,23.75,816.96z M61.92,740.33c-3.96,0-7.63-0.28-11.03-1.13c-3.39-0.57-6.79-1.7-9.61-2.83
			s-5.66-2.26-7.92-3.68c-2.26-1.13-4.52-2.54-6.5-3.68v-13.01c0-4.81,0-8.77,0.28-11.59v-7.92l0.57-6.5c0-1.98,0.28-4.52,0.85-7.92
			c0.85-3.96,2.26-7.63,4.24-11.59c1.7-3.39,3.68-6.22,5.66-8.48c5.94-5.94,11.59-10.18,16.97-13.01
			c5.09-2.54,10.46-3.96,16.12-3.96c5.09,0,10.46,0.85,15.55,2.54c5.09,1.7,9.9,4.52,14.14,8.48c3.96,3.96,7.07,9.33,9.61,15.55
			c2.54,6.22,3.96,14.14,3.96,23.19c0,6.79-1.41,13.01-3.96,18.66c-2.83,5.66-6.79,10.18-11.31,14.14
			c-5.09,4.24-10.74,7.35-16.97,9.61C76.06,739.48,69.28,740.33,61.92,740.33z M276.26,823.18c3.39,0,5.94-0.57,8.2-1.7
			c1.98-1.13,3.68-2.26,4.81-3.96c1.13-1.7,1.7-3.39,2.26-5.66c0-1.98,0.28-3.96,0.28-6.22c0-3.39-0.28-6.79-0.28-10.18v-10.46
			c0-6.5-0.28-13.01-0.57-19.51c-0.28-6.22-0.28-12.72-0.28-19.23c0-6.79-1.13-13.57-3.11-20.36c-2.26-6.79-5.66-12.72-10.18-18.38
			c-4.52-5.37-10.18-9.9-16.97-13.29c-6.79-3.39-14.99-5.09-24.03-5.09c-5.09,0-11.59,0.85-19.51,2.26
			c-7.92,1.7-15.55,4.24-22.62,7.92c-5.94,3.39-11.31,6.79-15.83,10.18c-4.81,3.68-7.07,7.92-7.07,12.72c0,3.39,1.13,6.5,3.96,9.33
			c2.54,2.83,5.94,4.24,10.46,4.24c1.98,0,3.96-0.28,5.66-1.13c1.7-0.57,3.11-1.7,4.81-2.83c0.57-0.57,1.41-1.13,2.26-1.98
			c0.57-0.57,1.41-1.13,2.26-1.98c0.57-0.57,1.41-1.13,2.26-1.98c0.57-0.57,1.41-1.41,2.54-2.26c3.11-2.83,6.79-5.66,11.31-7.92
			c4.52-2.26,10.18-3.68,17.53-3.68c3.96,0,7.63,0.85,11.03,2.26c3.11,1.7,5.94,3.68,8.2,5.94c1.98,2.83,3.68,5.66,5.09,8.48
			c1.13,3.39,1.7,6.5,2.26,9.33c-5.09,0.57-11.03,0.85-17.53,1.41c-6.79,0.85-13.86,1.98-20.92,3.39
			c-7.07,1.41-14.14,3.11-20.92,5.09c-6.79,2.26-13.01,5.09-18.1,8.2c-5.66,3.39-9.9,7.07-13.01,11.59
			c-3.39,4.52-5.09,9.33-5.09,14.99c0,5.09,1.13,9.9,3.96,13.86c2.83,3.96,6.5,7.35,11.31,10.18c4.81,2.83,10.74,5.09,17.53,6.79
			c6.5,1.7,13.86,2.26,21.77,2.26c6.5,0,13.57-0.85,20.92-2.83c7.35-1.7,13.57-4.81,19.23-9.05c0,5.66,1.13,10.18,3.68,13.57
			C266.08,821.2,270.03,823.18,276.26,823.18z M221.12,796.32c-2.83,0-5.37-0.28-7.92-1.13c-2.83-0.57-5.09-1.7-7.07-3.11
			c-2.26-1.13-4.24-2.54-5.66-4.52c-1.41-1.7-1.98-3.68-1.98-5.94c0-4.81,2.26-8.77,7.07-11.59c4.52-2.83,9.9-5.37,16.4-7.07
			c6.5-1.7,13.29-2.83,20.64-3.39c7.07-0.57,13.01-0.85,18.1-0.85l-0.28,20.92c-4.52,5.37-10.18,9.61-16.97,12.44
			C236.39,794.9,229.03,796.32,221.12,796.32z M368.15,814.7c13.57,0,24.03-8.77,31.95-26.86c5.37,8.77,11.03,15.27,16.97,19.23
			c5.66,4.24,12.16,6.22,18.94,6.22c14.7,0,26.86-12.16,36.48-36.48c3.39-9.61,6.22-19.23,8.2-29.41c1.7-9.9,2.83-18.1,2.83-24.32
			c0-3.39-0.28-7.07-0.57-11.31c-0.57-3.96-1.7-7.63-2.83-11.31c-1.41-3.39-3.11-6.22-5.09-8.48c-2.26-2.26-5.09-3.39-8.48-3.39
			c-3.96,0-7.92,1.41-11.31,3.96c-1.7,1.13-2.83,2.26-3.96,3.39c-1.13,1.41-1.41,3.11-1.41,5.09s0.57,3.68,1.7,5.37l3.11,4.81
			c0.57,1.13,1.13,3.11,1.41,5.37c0,2.54,0.28,6.22,0.28,11.03c0,5.66-0.57,11.31-1.13,16.97c-0.85,5.94-1.98,12.16-3.68,18.66
			c-4.52,18.1-10.74,26.86-19.23,26.86c-2.54,0-4.81-0.85-6.79-3.11c-2.26-1.7-3.96-4.52-5.37-7.92c-1.41-3.11-2.54-6.79-3.11-11.03
			c-0.85-3.96-1.13-8.48-1.13-13.01v-24.88c0-3.68-1.7-6.5-4.81-8.2c-3.11-1.41-5.94-2.26-8.48-2.26c-2.83,0-5.66,0.85-8.48,1.98
			c-2.83,1.41-4.81,3.68-5.94,6.79c-0.57,1.13-0.57,2.26-0.57,3.39c0,1.7,0,3.39,0.57,5.09c0.28,1.7,0.57,3.39,0.57,4.81
			c0,4.52-0.57,9.61-1.41,15.27c-1.13,5.66-2.54,10.74-4.24,15.55c-1.98,5.09-4.24,9.05-7.07,12.44c-2.83,3.39-6.22,5.09-10.18,5.09
			c-2.26,0-4.52-0.85-6.79-3.11c-2.26-2.26-4.52-5.66-6.22-10.74c-1.7-4.81-3.11-11.31-4.24-19.51c-1.13-7.92-1.7-18.1-1.7-29.97
			c0-3.68,0.28-7.35,1.41-11.03c1.13-3.68,1.98-7.35,3.11-11.03c0-3.96-2.26-7.35-6.5-9.61c-5.37-2.54-9.9-3.96-13.29-3.96
			c-3.96,0-6.79,2.26-7.92,6.5c-1.41,4.52-2.26,9.33-2.83,14.42c-0.57,3.39-0.85,6.5-0.85,9.9v11.88c0,3.39,0,7.35,0.57,11.88
			c0.28,4.81,1.13,9.61,2.26,14.7c0.85,5.09,2.26,9.9,3.96,14.99c1.41,5.09,3.39,9.9,5.66,14.42c3.68,7.35,8.48,13.29,14.14,17.81
			C352.32,812.43,359.67,814.7,368.15,814.7z M527.91,878.32c3.39,0,5.94-0.85,8.2-1.98c1.98-1.41,3.68-3.11,5.09-5.09
			c1.13-1.98,2.26-3.96,2.83-6.22c0.28-2.26,0.57-4.52,0.57-6.5c-0.85-1.41-1.41-4.24-1.98-8.2c-0.28-1.13-0.28-1.98-0.28-3.11
			c-0.28-1.13-0.28-2.26-0.28-3.39c-0.28-1.7-0.28-3.68-0.28-6.5v-29.41c4.81,3.39,10.74,5.66,17.53,7.35
			c6.5,1.7,12.72,2.54,18.94,2.54c12.44,0,22.9-2.26,31.67-7.07c8.48-4.52,15.55-10.74,21.21-18.1c5.37-7.35,9.33-15.83,11.88-24.88
			c2.26-9.05,3.68-17.81,3.68-26.3c0-7.35-1.41-14.14-3.96-20.64c-2.83-6.22-6.5-11.88-11.59-16.68
			c-5.09-4.52-11.31-8.2-18.66-11.03c-7.35-2.83-15.55-4.24-24.6-4.24c-8.48,0-16.97,2.26-24.88,6.5
			c-8.2,4.52-14.99,9.61-20.08,14.7c0-4.81-0.28-8.48-0.57-11.03c-0.57-2.26-1.41-4.24-2.54-5.94c-1.41-1.41-3.11-2.83-4.81-4.52
			c-1.98-1.41-4.24-2.26-7.07-2.26c-2.26,0-4.24,0.28-6.5,0.57c-2.26,0.28-4.52,0.85-6.22,1.41c-1.7,0.85-3.39,1.98-4.52,3.39
			c-1.13,1.7-1.7,3.39-1.7,5.66c0,1.13,0,2.26,0.28,3.39c0,1.13,0.28,2.26,0.85,3.11l0.57,2.83l0.85,3.39
			c1.13,7.92,1.7,16.12,1.7,24.03c0,11.03-0.28,21.77-0.28,32.52c0,10.74-0.28,21.77-0.28,32.52c0,5.09-0.28,10.74-0.28,16.68v17.25
			c-0.28,5.66-0.28,10.74-0.28,15.55v10.46c0,1.41,0.28,3.39,0.85,5.66c0.57,2.26,1.98,4.24,3.68,6.5c1.7,1.7,3.68,3.39,5.37,5.09
			C523.67,877.47,525.65,878.32,527.91,878.32z M579.94,798.58c-3.68,0-7.63-0.57-11.88-1.98c-4.52-1.13-8.48-2.54-12.16-4.81
			c-3.68-1.98-6.79-4.52-9.05-7.63c-2.54-2.83-3.68-5.66-3.68-9.05v-9.05c0-3.11,0-6.22,0.28-9.61c0-3.39,0.57-6.5,1.7-9.9
			c1.13-3.68,3.39-7.63,6.79-12.16c3.39-3.96,7.63-7.92,12.44-11.88c4.81-3.39,9.9-6.5,15.27-9.05c5.37-2.26,10.46-3.68,15.55-3.68
			c3.96,0,7.35,1.13,9.9,3.11c2.26,1.98,4.24,4.24,5.66,7.07c1.13,2.83,1.98,5.94,2.54,9.33c0.28,3.39,0.57,6.5,0.57,9.33
			c0,4.81-0.57,10.46-1.13,17.25c-0.85,7.07-2.54,13.57-4.81,19.79c-2.26,6.5-5.66,11.88-10.18,16.4S587.29,798.58,579.94,798.58z
			 M780.13,823.18c3.39,0,5.94-0.57,8.2-1.7c1.98-1.13,3.68-2.26,4.81-3.96c1.13-1.7,1.7-3.39,2.26-5.66c0-1.98,0.28-3.96,0.28-6.22
			c0-3.39-0.28-6.79-0.28-10.18v-10.46c0-6.5-0.28-13.01-0.57-19.51c-0.28-6.22-0.28-12.72-0.28-19.23c0-6.79-1.13-13.57-3.11-20.36
			c-2.26-6.79-5.66-12.72-10.18-18.38c-4.52-5.37-10.18-9.9-16.97-13.29c-6.79-3.39-14.99-5.09-24.03-5.09
			c-5.09,0-11.59,0.85-19.51,2.26c-7.92,1.7-15.55,4.24-22.62,7.92c-5.94,3.39-11.31,6.79-15.83,10.18
			c-4.81,3.68-7.07,7.92-7.07,12.72c0,3.39,1.13,6.5,3.96,9.33c2.54,2.83,5.94,4.24,10.46,4.24c1.98,0,3.96-0.28,5.66-1.13
			c1.7-0.57,3.11-1.7,4.81-2.83c0.57-0.57,1.41-1.13,2.26-1.98c0.57-0.57,1.41-1.13,2.26-1.98c0.57-0.57,1.41-1.13,2.26-1.98
			c0.57-0.57,1.41-1.41,2.54-2.26c3.11-2.83,6.79-5.66,11.31-7.92s10.18-3.68,17.53-3.68c3.96,0,7.63,0.85,11.03,2.26
			c3.11,1.7,5.94,3.68,8.2,5.94c1.98,2.83,3.68,5.66,5.09,8.48c1.13,3.39,1.7,6.5,2.26,9.33c-5.09,0.57-11.03,0.85-17.53,1.41
			c-6.79,0.85-13.86,1.98-20.92,3.39c-7.07,1.41-14.14,3.11-20.92,5.09c-6.79,2.26-13.01,5.09-18.1,8.2
			c-5.66,3.39-9.9,7.07-13.01,11.59c-3.39,4.52-5.09,9.33-5.09,14.99c0,5.09,1.13,9.9,3.96,13.86c2.83,3.96,6.5,7.35,11.31,10.18
			c4.81,2.83,10.74,5.09,17.53,6.79c6.5,1.7,13.86,2.26,21.77,2.26c6.5,0,13.57-0.85,20.92-2.83c7.35-1.7,13.57-4.81,19.23-9.05
			c0,5.66,1.13,10.18,3.68,13.57C769.95,821.2,773.91,823.18,780.13,823.18L780.13,823.18z M724.99,796.32
			c-1.89,0-3.64-0.13-5.36-0.46l-2.56-0.67c-2.83-0.57-5.09-1.7-7.07-3.11c-2.26-1.13-4.24-2.54-5.66-4.52
			c-1.41-1.7-1.98-3.68-1.98-5.94c0-4.81,2.26-8.77,7.07-11.59c4.52-2.83,9.9-5.37,16.4-7.07c6.5-1.7,13.29-2.83,20.64-3.39
			c7.07-0.57,13.01-0.85,18.1-0.85l-0.28,20.92c-4.52,5.37-10.18,9.61-16.97,12.44C740.26,794.9,732.91,796.32,724.99,796.32z
			 M872.03,814.7c13.57,0,24.03-8.77,31.95-26.86c5.37,8.77,11.03,15.27,16.97,19.23c5.66,4.24,12.16,6.22,18.94,6.22
			c14.7,0,26.86-12.16,36.48-36.48c3.39-9.61,6.22-19.23,8.2-29.41c1.7-9.9,2.83-18.1,2.83-24.32c0-3.39-0.28-7.07-0.57-11.31
			c-0.57-3.96-1.7-7.63-2.83-11.31c-1.41-3.39-3.11-6.22-5.09-8.48c-2.26-2.26-5.09-3.39-8.48-3.39c-3.96,0-7.92,1.41-11.31,3.96
			c-1.7,1.13-2.83,2.26-3.96,3.39c-1.13,1.41-1.41,3.11-1.41,5.09s0.57,3.68,1.7,5.37l3.11,4.81c0.57,1.13,1.13,3.11,1.41,5.37
			c0,2.54,0.28,6.22,0.28,11.03c0,5.66-0.57,11.31-1.13,16.97c-0.85,5.94-1.98,12.16-3.68,18.66c-4.52,18.1-10.74,26.86-19.23,26.86
			c-2.54,0-4.81-0.85-6.79-3.11c-2.26-1.7-3.96-4.52-5.37-7.92c-1.41-3.11-2.54-6.79-3.11-11.03c-0.85-3.96-1.13-8.48-1.13-13.01
			v-24.88c0-3.68-1.7-6.5-4.81-8.2c-3.11-1.41-5.94-2.26-8.48-2.26c-2.83,0-5.66,0.85-8.48,1.98c-2.83,1.41-4.81,3.68-5.94,6.79
			c-0.57,1.13-0.57,2.26-0.57,3.39c0,1.7,0,3.39,0.57,5.09c0.28,1.7,0.57,3.39,0.57,4.81c0,4.52-0.57,9.61-1.41,15.27
			c-1.13,5.66-2.54,10.74-4.24,15.55c-1.98,5.09-4.24,9.05-7.07,12.44c-2.83,3.39-6.22,5.09-10.18,5.09c-2.26,0-4.52-0.85-6.79-3.11
			c-2.26-2.26-4.52-5.66-6.22-10.74c-1.7-4.81-3.11-11.31-4.24-19.51c-1.13-7.92-1.7-18.1-1.7-29.97c0-3.68,0.28-7.35,1.41-11.03
			c1.13-3.68,1.98-7.35,3.11-11.03c0-3.96-2.26-7.35-6.5-9.61c-5.37-2.54-9.9-3.96-13.29-3.96c-3.96,0-6.79,2.26-7.92,6.5
			c-1.41,4.52-2.26,9.33-2.83,14.42c-0.57,3.39-0.85,6.5-0.85,9.9v11.88c0,3.39,0,7.35,0.57,11.88c0.28,4.81,1.13,9.61,2.26,14.7
			c0.85,5.09,2.26,9.9,3.96,14.99c1.41,5.09,3.39,9.9,5.66,14.42c3.68,7.35,8.48,13.29,14.14,17.81
			C856.19,812.43,863.55,814.7,872.03,814.7z"/>
	</g>
</g>
</svg>
