<?xml version="1.0" standalone="no"?><!DOCTYPE svg PUBLIC "-//W3C//DTD SVG 1.1//EN" "http://www.w3.org/Graphics/SVG/1.1/DTD/svg11.dtd"><svg t="1616504470537" class="icon" viewBox="0 0 1024 1024" version="1.1" xmlns="http://www.w3.org/2000/svg" p-id="1685" xmlns:xlink="http://www.w3.org/1999/xlink" width="200" height="200"><defs><style type="text/css"></style></defs><path d="M1024 352.017067c0 194.389333-157.5936 351.982933-352.017067 351.982933-22.4256 0-44.373333-2.116267-65.6384-6.144l-48.0256 54.033067c-9.1136 10.24-22.186667 16.110933-35.874133 16.110933h-74.4448v80.008533c0 26.487467-21.504 47.991467-47.991467 47.991467H320v80.008533c0 26.487467-21.504 47.991467-47.991467 47.991467H47.991467C21.504 1024 0 1002.496 0 976.008533V819.882667c0-12.731733 5.051733-24.917333 14.062933-33.928534l323.584-323.618133a351.675733 351.675733 0 0 1-17.646933-110.318933C320 157.5936 477.5936 0 671.982933 0 866.986667 0 1024 157.013333 1024 352.017067zM671.982933 256a95.982933 95.982933 0 1 0 192 0 95.982933 95.982933 0 0 0-192 0z" p-id="1686" fill="#DEC39E"></path></svg>