<?xml version="1.0" standalone="no"?><!DOCTYPE svg PUBLIC "-//W3C//DTD SVG 1.1//EN" "http://www.w3.org/Graphics/SVG/1.1/DTD/svg11.dtd"><svg t="1616514752714" class="icon" viewBox="0 0 1024 1024" version="1.1" xmlns="http://www.w3.org/2000/svg" p-id="5206" xmlns:xlink="http://www.w3.org/1999/xlink" width="200" height="200"><defs><style type="text/css"></style></defs><path d="M47.104 879.274667c-27.818667 0-46.3872-18.5344-46.3872-46.353067V369.152c0-27.8528 18.568533-46.3872 46.3872-46.3872s46.3872 18.5344 46.3872 46.3872v417.3824h695.637333c27.818667 0 46.3872 18.5344 46.3872 46.3872s-18.568533 46.353067-46.3872 46.353067z m881.152-185.480534H232.618667c-27.8528 0-46.3872-18.568533-46.3872-46.421333V183.637333c0-27.818667 18.5344-46.3872 46.3872-46.3872h742.024533c27.818667 0 46.3872 18.568533 46.3872 46.3872v463.7696c0 27.818667-18.568533 46.3872-46.421333 46.3872zM278.971733 322.7648v185.514667a93.013333 93.013333 0 0 1 92.7744 92.740266h463.7696a93.013333 93.013333 0 0 1 92.740267-92.740266V322.7648a93.013333 93.013333 0 0 1-92.740267-92.740267H371.712a93.013333 93.013333 0 0 1-92.7744 92.740267z m185.514667 92.740267c0-78.848 60.279467-139.127467 139.127467-139.127467s139.127467 60.3136 139.127466 139.127467c0 78.848-60.279467 139.127467-139.127466 139.127466s-139.127467-60.279467-139.127467-139.127466z" p-id="5207" fill="#333333"></path></svg>