<?xml version="1.0" standalone="no"?><!DOCTYPE svg PUBLIC "-//W3C//DTD SVG 1.1//EN" "http://www.w3.org/Graphics/SVG/1.1/DTD/svg11.dtd"><svg t="1619652988498" class="icon" viewBox="0 0 1024 1024" version="1.1" xmlns="http://www.w3.org/2000/svg" p-id="1791" xmlns:xlink="http://www.w3.org/1999/xlink" width="200" height="200"><defs><style type="text/css"></style></defs><path d="M512 954.1L78.8 524.9C28 474.5 0 407.6 0 336.4s28-138.2 78.8-188.5c104.9-104 275.6-104 380.5 0L512 200l52.7-52.2c104.9-104 275.6-104 380.5 0 50.8 50.4 78.8 117.3 78.8 188.5s-28 138.2-78.8 188.5L512 954.1zM269.1 135c-52.3 0-104.6 19.7-144.4 59.2-38.4 38-59.5 88.5-59.5 142.2 0 53.7 21.1 104.2 59.5 142.2L512 862.4l387.3-383.8c38.4-38 59.5-88.5 59.5-142.2 0-53.7-21.1-104.2-59.5-142.2-79.6-78.9-209.2-78.9-288.8 0L512 291.7l-98.5-97.6c-39.8-39.4-92.1-59.1-144.4-59.1z" p-id="1792" fill="#f94956"></path></svg>