<?xml version="1.0" standalone="no"?><!DOCTYPE svg PUBLIC "-//W3C//DTD SVG 1.1//EN" "http://www.w3.org/Graphics/SVG/1.1/DTD/svg11.dtd"><svg t="1616514739039" class="icon" viewBox="0 0 1024 1024" version="1.1" xmlns="http://www.w3.org/2000/svg" p-id="4465" xmlns:xlink="http://www.w3.org/1999/xlink" width="200" height="200"><defs><style type="text/css"></style></defs><path d="M512 1024C229.205333 1024 0 794.794667 0 512S229.205333 0 512 0s512 229.205333 512 512-229.205333 512-512 512z m0-85.333333c235.656533 0 426.666667-191.010133 426.666667-426.666667S747.656533 85.333333 512 85.333333 85.333333 276.343467 85.333333 512 276.343467 938.666667 512 938.666667z" p-id="4466" fill="#333333"></path><path d="M493.704533 702.600533l-134.280533 67.1744a40.96 40.96 0 0 1-58.641067-43.9296l24.576-136.635733a40.96 40.96 0 0 0-12.424533-37.2736l-102.8096-95.368533a40.96 40.96 0 0 1 22.254933-70.587734l145.749334-20.138666a40.96 40.96 0 0 0 30.72-21.742934l66.7648-128.682666a40.96 40.96 0 0 1 72.772266 0l66.7648 128.682666a40.96 40.96 0 0 0 30.72 21.7088l145.749334 20.138667a40.96 40.96 0 0 1 22.254933 70.656l-102.8096 95.3344a40.96 40.96 0 0 0-12.4928 37.2736l24.644267 136.635733a40.96 40.96 0 0 1-58.641067 43.861334l-134.280533-67.1744a40.96 40.96 0 0 0-36.590934 0z" p-id="4467" fill="#333333"></path></svg>