<?xml version="1.0" standalone="no"?><!DOCTYPE svg PUBLIC "-//W3C//DTD SVG 1.1//EN" "http://www.w3.org/Graphics/SVG/1.1/DTD/svg11.dtd"><svg t="1613729489639" class="icon" viewBox="0 0 1024 1024" version="1.1" xmlns="http://www.w3.org/2000/svg" p-id="1665" xmlns:xlink="http://www.w3.org/1999/xlink" width="200" height="200"><defs><style type="text/css"></style></defs><path d="M769.501867 834.2528a208.145067 208.145067 0 0 1-13.380267-14.5408c-77.9264 61.917867-179.438933 99.259733-279.005867 99.1232-244.3264-0.136533-442.129067-197.973333-442.436266-442.299733C34.986667 232.379733 232.789333 34.577067 477.115733 34.269867c244.155733 0.3072 441.992533 198.109867 442.2656 442.2656 0.170667 99.601067-39.697067 204.151467-101.614933 282.112 2.3552 1.774933 11.298133 10.922667 13.380267 12.970666l141.038933 143.394134c20.309333 20.309333 15.018667 52.804267 0.750933 64.7168-8.0896 6.7584-13.243733 10.001067-26.9312 10.001066-13.824 0-27.067733-6.485333-36.7616-16.315733l-139.741866-139.1616z m-660.821334-355.669333c0.273067 204.629333 166.058667 370.3808 370.653867 370.688 204.5952-0.3072 370.346667-166.058667 370.4832-370.688-0.273067-204.561067-165.888-370.346667-370.517333-370.619734-204.561067 0.136533-370.346667 165.751467-370.7904 370.346667l0.170666 0.3072z" p-id="1666" fill="#E5CEAE"></path></svg>