<?xml version="1.0" encoding="UTF-8"?>
<svg width="190px" height="190px" viewBox="0 0 190 190" version="1.1" xmlns="http://www.w3.org/2000/svg" xmlns:xlink="http://www.w3.org/1999/xlink">
    <!-- Generator: Sketch 61 (89581) - https://sketch.com -->
    <title>tiles</title>
    <desc>Created with Sketch.</desc>
    <g id="tiles" stroke="none" stroke-width="1" fill="none" fill-rule="evenodd">
        <g id="Group" transform="translate(7.000000, 9.000000)" fill="#DEC39E" fill-rule="nonzero">
            <g id="Group-Copy" transform="translate(29.000000, 28.500000) rotate(-40.000000) translate(-29.000000, -28.500000) translate(8.000000, 9.000000)">
                <path d="M34.7747748,33.6272072 C34.7747748,36.4996036 33.1484745,37.7746787 29.4055495,37.7746787 C26.3152312,37.7746787 23.7129189,36.6584084 20.458,36.6584084 C17.2053994,36.6584084 15.2522162,38.2522523 11.6727328,38.2522523 C8.25784987,38.2522523 6.95495495,35.8585886 6.95495495,34.1047808 C6.95495495,30.5948469 9.55842644,30.1172733 12.4853033,27.0837538 C15.4156577,24.0548709 17.041958,20.8648649 20.1334355,20.8648649 C23.7129189,20.8648649 24.8523724,24.6935676 27.4546847,27.7247688 C29.7312733,30.5948468 34.7747748,30.2749189 34.7747748,33.6272072 Z M27.8383663,16.2282282 C31.6890931,16.2282282 33.6156156,11.375988 33.6156156,6.85990392 C33.6156156,2.34381982 30.886955,0 29.1215555,0 C25.2696697,0 23.1831832,4.18224626 23.1831832,7.02682284 C23.1831832,9.70332136 24.3064084,16.2282282 27.8383663,16.2282282 Z M14.9322883,15.0690691 C18.8212672,15.0690691 19.7057057,10.3698378 19.7057057,5.99517117 C19.7057057,2.75300302 17.4070931,0 15.1073213,0 C11.040991,0 9.27327329,3.88781982 9.27327329,7.12882883 C9.27327329,9.72302703 11.5718859,15.0690691 14.9322883,15.0690691 L14.9322883,15.0690691 Z M10.4324324,19.7335255 C10.4324324,16.8205586 7.8672132,13.9099099 5.47354955,13.9099099 C3.07872671,13.9099099 -3.95343418e-15,17.4673694 -3.95343418e-15,21.3493934 C-3.95343418e-15,23.9377958 2.05287085,27.8198198 5.30083482,27.8198198 C8.38072072,27.8198198 10.4324324,23.7755135 10.4324324,19.7335255 Z M39.1019159,13.9829369 C36.8554654,13.4984084 34.4455736,15.4388409 32.519051,19.3173874 C30.1114775,23.6850991 31.5557898,27.077958 34.2844505,27.7259279 C37.0142703,28.3738979 39.7429309,25.6232132 41.1872432,21.5823844 C42.4727508,18.5094535 41.3495255,14.4663064 39.1019159,13.9829369 L39.1019159,13.9829369 Z" id="Shape"></path>
            </g>
            <g id="Group-Copy-2" transform="translate(126.000000, 49.500000) rotate(-40.000000) translate(-126.000000, -49.500000) translate(105.000000, 30.000000)">
                <path d="M34.7747748,33.6272072 C34.7747748,36.4996036 33.1484745,37.7746787 29.4055495,37.7746787 C26.3152312,37.7746787 23.7129189,36.6584084 20.458,36.6584084 C17.2053994,36.6584084 15.2522162,38.2522523 11.6727328,38.2522523 C8.25784987,38.2522523 6.95495495,35.8585886 6.95495495,34.1047808 C6.95495495,30.5948469 9.55842644,30.1172733 12.4853033,27.0837538 C15.4156577,24.0548709 17.041958,20.8648649 20.1334355,20.8648649 C23.7129189,20.8648649 24.8523724,24.6935676 27.4546847,27.7247688 C29.7312733,30.5948468 34.7747748,30.2749189 34.7747748,33.6272072 Z M27.8383663,16.2282282 C31.6890931,16.2282282 33.6156156,11.375988 33.6156156,6.85990392 C33.6156156,2.34381982 30.886955,0 29.1215555,0 C25.2696697,0 23.1831832,4.18224626 23.1831832,7.02682284 C23.1831832,9.70332136 24.3064084,16.2282282 27.8383663,16.2282282 Z M14.9322883,15.0690691 C18.8212672,15.0690691 19.7057057,10.3698378 19.7057057,5.99517117 C19.7057057,2.75300302 17.4070931,0 15.1073213,0 C11.040991,0 9.27327329,3.88781982 9.27327329,7.12882883 C9.27327329,9.72302703 11.5718859,15.0690691 14.9322883,15.0690691 L14.9322883,15.0690691 Z M10.4324324,19.7335255 C10.4324324,16.8205586 7.8672132,13.9099099 5.47354955,13.9099099 C3.07872671,13.9099099 -3.95343418e-15,17.4673694 -3.95343418e-15,21.3493934 C-3.95343418e-15,23.9377958 2.05287085,27.8198198 5.30083482,27.8198198 C8.38072072,27.8198198 10.4324324,23.7755135 10.4324324,19.7335255 Z M39.1019159,13.9829369 C36.8554654,13.4984084 34.4455736,15.4388409 32.519051,19.3173874 C30.1114775,23.6850991 31.5557898,27.077958 34.2844505,27.7259279 C37.0142703,28.3738979 39.7429309,25.6232132 41.1872432,21.5823844 C42.4727508,18.5094535 41.3495255,14.4663064 39.1019159,13.9829369 L39.1019159,13.9829369 Z" id="Shape"></path>
            </g>
            <g id="Group-Copy-4" transform="translate(147.000000, 144.500000) rotate(-40.000000) translate(-147.000000, -144.500000) translate(126.000000, 125.000000)">
                <path d="M34.7747748,33.6272072 C34.7747748,36.4996036 33.1484745,37.7746787 29.4055495,37.7746787 C26.3152312,37.7746787 23.7129189,36.6584084 20.458,36.6584084 C17.2053994,36.6584084 15.2522162,38.2522523 11.6727328,38.2522523 C8.25784987,38.2522523 6.95495495,35.8585886 6.95495495,34.1047808 C6.95495495,30.5948469 9.55842644,30.1172733 12.4853033,27.0837538 C15.4156577,24.0548709 17.041958,20.8648649 20.1334355,20.8648649 C23.7129189,20.8648649 24.8523724,24.6935676 27.4546847,27.7247688 C29.7312733,30.5948468 34.7747748,30.2749189 34.7747748,33.6272072 Z M27.8383663,16.2282282 C31.6890931,16.2282282 33.6156156,11.375988 33.6156156,6.85990392 C33.6156156,2.34381982 30.886955,0 29.1215555,0 C25.2696697,0 23.1831832,4.18224626 23.1831832,7.02682284 C23.1831832,9.70332136 24.3064084,16.2282282 27.8383663,16.2282282 Z M14.9322883,15.0690691 C18.8212672,15.0690691 19.7057057,10.3698378 19.7057057,5.99517117 C19.7057057,2.75300302 17.4070931,0 15.1073213,0 C11.040991,0 9.27327329,3.88781982 9.27327329,7.12882883 C9.27327329,9.72302703 11.5718859,15.0690691 14.9322883,15.0690691 L14.9322883,15.0690691 Z M10.4324324,19.7335255 C10.4324324,16.8205586 7.8672132,13.9099099 5.47354955,13.9099099 C3.07872671,13.9099099 -3.95343418e-15,17.4673694 -3.95343418e-15,21.3493934 C-3.95343418e-15,23.9377958 2.05287085,27.8198198 5.30083482,27.8198198 C8.38072072,27.8198198 10.4324324,23.7755135 10.4324324,19.7335255 Z M39.1019159,13.9829369 C36.8554654,13.4984084 34.4455736,15.4388409 32.519051,19.3173874 C30.1114775,23.6850991 31.5557898,27.077958 34.2844505,27.7259279 C37.0142703,28.3738979 39.7429309,25.6232132 41.1872432,21.5823844 C42.4727508,18.5094535 41.3495255,14.4663064 39.1019159,13.9829369 L39.1019159,13.9829369 Z" id="Shape"></path>
            </g>
            <g id="Group-Copy-3" transform="translate(49.000000, 115.500000) rotate(-40.000000) translate(-49.000000, -115.500000) translate(28.000000, 96.000000)">
                <path d="M34.7747748,33.6272072 C34.7747748,36.4996036 33.1484745,37.7746787 29.4055495,37.7746787 C26.3152312,37.7746787 23.7129189,36.6584084 20.458,36.6584084 C17.2053994,36.6584084 15.2522162,38.2522523 11.6727328,38.2522523 C8.25784987,38.2522523 6.95495495,35.8585886 6.95495495,34.1047808 C6.95495495,30.5948469 9.55842644,30.1172733 12.4853033,27.0837538 C15.4156577,24.0548709 17.041958,20.8648649 20.1334355,20.8648649 C23.7129189,20.8648649 24.8523724,24.6935676 27.4546847,27.7247688 C29.7312733,30.5948468 34.7747748,30.2749189 34.7747748,33.6272072 Z M27.8383663,16.2282282 C31.6890931,16.2282282 33.6156156,11.375988 33.6156156,6.85990392 C33.6156156,2.34381982 30.886955,0 29.1215555,0 C25.2696697,0 23.1831832,4.18224626 23.1831832,7.02682284 C23.1831832,9.70332136 24.3064084,16.2282282 27.8383663,16.2282282 Z M14.9322883,15.0690691 C18.8212672,15.0690691 19.7057057,10.3698378 19.7057057,5.99517117 C19.7057057,2.75300302 17.4070931,0 15.1073213,0 C11.040991,0 9.27327329,3.88781982 9.27327329,7.12882883 C9.27327329,9.72302703 11.5718859,15.0690691 14.9322883,15.0690691 L14.9322883,15.0690691 Z M10.4324324,19.7335255 C10.4324324,16.8205586 7.8672132,13.9099099 5.47354955,13.9099099 C3.07872671,13.9099099 -3.95343418e-15,17.4673694 -3.95343418e-15,21.3493934 C-3.95343418e-15,23.9377958 2.05287085,27.8198198 5.30083482,27.8198198 C8.38072072,27.8198198 10.4324324,23.7755135 10.4324324,19.7335255 Z M39.1019159,13.9829369 C36.8554654,13.4984084 34.4455736,15.4388409 32.519051,19.3173874 C30.1114775,23.6850991 31.5557898,27.077958 34.2844505,27.7259279 C37.0142703,28.3738979 39.7429309,25.6232132 41.1872432,21.5823844 C42.4727508,18.5094535 41.3495255,14.4663064 39.1019159,13.9829369 L39.1019159,13.9829369 Z" id="Shape"></path>
            </g>
        </g>
    </g>
</svg>