<?xml version="1.0" standalone="no"?><!DOCTYPE svg PUBLIC "-//W3C//DTD SVG 1.1//EN" "http://www.w3.org/Graphics/SVG/1.1/DTD/svg11.dtd"><svg t="1617269389542" class="icon" viewBox="0 0 1024 1024" version="1.1" xmlns="http://www.w3.org/2000/svg" p-id="1669" xmlns:xlink="http://www.w3.org/1999/xlink" width="200" height="200"><defs><style type="text/css"></style></defs><path d="M963.948076 549.507659c44.54512 53.085952 34.249324 101.79899-34.923311 159.841844-57.068873 47.887054-122.466582 67.646664-182.522396 118.040669-60.056814 50.393005-71.454589 110.083826-137.563283 165.554731-63.043755 52.900955-124.261546 28.948428-151.45101-3.454932-54.378926-64.80572-13.66373-113.981749-6.709867-215.370747 7.234857-101.363998-12.229759-185.545336 44.916113-233.495389 66.108695-55.471905 146.502107-2.443952 241.519231 13.250738 86.534291 17.72065 174.73455-66.33869 226.735523-4.366914zM566.223929 335.629883c71.088596-59.648822 31.503378-179.163462-38.49424-262.584815S371.009784-11.361266 338.376428 16.021194c-71.163595 59.713821-44.903113 169.260658-0.808984 221.81062 41.459181 49.409024 163.390774 152.562987 228.656485 97.798069z m-256.384937 178.582473c71.852581-60.291809 15.342697-160.773825-52.469964-241.590229-50.201009-59.826819-135.319328-75.081517-177.833489-39.407222C4.465022 296.205661 31.983478 395.429702 82.248486 455.332519c40.173207 47.877055 165.541731 110.943809 227.589506 58.878837z m-10.802787 155.919922c-45.123109-53.774938-137.586283-67.826661-181.862409-30.674395-44.200127 37.087268-45.966092 150.571027 14.19772 222.271611 40.109208 47.800056 138.191271 87.683269 198.171087 37.354263 56.851877-47.835055 32.099366-154.339952-30.506398-228.951479z m440.326305-550.53413c-49.039032 25.875489-63.463747 99.071044-38.907231 200.519041 23.254541 117.944671 102.490976 158.236875 162.922783 127.892475 60.431807-30.344401 68.220653-123.427563 32.272362-220.406648-23.81853-76.612487-107.247882-133.881356-156.286914-108.004868z" p-id="1670" fill="#333333"></path></svg>