<?xml version="1.0" standalone="no"?><!DOCTYPE svg PUBLIC "-//W3C//DTD SVG 1.1//EN" "http://www.w3.org/Graphics/SVG/1.1/DTD/svg11.dtd"><svg t="1614614044325" class="icon" viewBox="0 0 1024 1024" version="1.1" xmlns="http://www.w3.org/2000/svg" p-id="2255" xmlns:xlink="http://www.w3.org/1999/xlink" width="200" height="200"><defs><style type="text/css"></style></defs><path d="M512 1023.9c141 0 261.5-50.1 361.7-150.2C973.8 773.5 1023.9 653 1023.9 512s-50.1-261.5-150.2-361.7C773.5 50.2 653 0.1 512 0.1S250.1 50.6 149.1 151.5C49.8 250.9 0.1 371 0.1 512s50.1 261.5 150.2 361.7C250.5 973.8 371 1023.9 512 1023.9z m0-103.4c-113.7 0-210.7-40.1-290.8-120.2-78.5-80-117.7-176.2-117.7-288.3s39.7-208.3 119-288.4S398.3 103.5 512 103.5s210.3 40.1 289.6 120.2 119 176.2 119 288.4-39.7 208.3-119 288.4-175.9 120-289.6 120z m218.7-197l38.4-62.5-230.7-137V257.3h-76.9v305.2l269.2 161z" p-id="2256"></path></svg>