<?xml version="1.0" standalone="no"?><!DOCTYPE svg PUBLIC "-//W3C//DTD SVG 1.1//EN" "http://www.w3.org/Graphics/SVG/1.1/DTD/svg11.dtd"><svg t="1613729706360" class="icon" viewBox="0 0 1024 1024" version="1.1" xmlns="http://www.w3.org/2000/svg" p-id="2127" xmlns:xlink="http://www.w3.org/1999/xlink" width="200" height="200"><defs><style type="text/css"></style></defs><path d="M851.080533 337.7152A335.325867 335.325867 0 0 0 514.389333 0.955733a335.325867 335.325867 0 0 0-336.759466 336.759467c0 127.214933 67.3792 235.690667 172.1344 291.84-142.199467 56.1152-250.709333 179.575467-280.610134 336.725333-3.754667 18.705067 7.4752 41.1648 29.9008 44.885334h7.509334c18.705067 0 33.655467-11.195733 37.410133-29.934934 33.655467-175.8208 187.050667-303.035733 366.660267-306.7904h7.509333c183.330133 0 332.970667-149.674667 332.970667-336.725333z m-598.6304 0A260.3008 260.3008 0 0 1 514.389333 75.776a260.3008 260.3008 0 0 1 261.905067 261.9392c0 142.165333-115.985067 258.1504-258.1504 261.905067h-11.264c-142.1312-3.754667-254.395733-119.739733-254.395733-261.905067z m508.859734 340.48c-18.705067-11.264-41.1648-7.509333-52.394667 11.195733-11.229867 18.7392-7.4752 41.1648 11.264 52.394667 86.016 59.869867 145.885867 142.165333 164.590933 239.445333 3.754667 18.7392 18.705067 29.934933 37.410134 29.934934h7.509333c18.705067-3.754667 33.655467-22.4256 29.934933-44.885334-22.459733-115.985067-93.525333-217.019733-198.314666-288.085333z" p-id="2128" fill="#E5CEAE"></path></svg>